<mxfile host="app.diagrams.net" modified="2022-09-14T12:39:24.718Z" agent="5.0 (Windows NT 10.0; Win64; x64) AppleWebKit/537.36 (KHTML, like Gecko) Chrome/105.0.0.0 Safari/537.36" etag="9By1C-_ZFLrl7zk5O7BG" version="20.2.7" type="github">
  <diagram id="ko5tzys0TlF7WUGApX0o" name="Page-1">
    <mxGraphModel dx="1178" dy="570" grid="1" gridSize="10" guides="1" tooltips="1" connect="1" arrows="1" fold="1" page="1" pageScale="1" pageWidth="850" pageHeight="1100" math="0" shadow="0">
      <root>
        <mxCell id="0" />
        <mxCell id="1" parent="0" />
        <mxCell id="NiBIm0Q60gBQWmjDM7II-1" value="ПТК Эксплуатация" style="rounded=0;whiteSpace=wrap;html=1;" vertex="1" parent="1">
          <mxGeometry x="305" y="80" width="120" height="60" as="geometry" />
        </mxCell>
        <mxCell id="NiBIm0Q60gBQWmjDM7II-3" value="" style="edgeStyle=orthogonalEdgeStyle;rounded=0;orthogonalLoop=1;jettySize=auto;html=1;" edge="1" parent="1" source="NiBIm0Q60gBQWmjDM7II-2" target="NiBIm0Q60gBQWmjDM7II-1">
          <mxGeometry relative="1" as="geometry" />
        </mxCell>
        <mxCell id="NiBIm0Q60gBQWmjDM7II-4" value="CIM RDF" style="edgeLabel;html=1;align=center;verticalAlign=middle;resizable=0;points=[];" vertex="1" connectable="0" parent="NiBIm0Q60gBQWmjDM7II-3">
          <mxGeometry x="0.2476" y="2" relative="1" as="geometry">
            <mxPoint as="offset" />
          </mxGeometry>
        </mxCell>
        <mxCell id="NiBIm0Q60gBQWmjDM7II-2" value="ПО Гармонизация" style="rounded=0;whiteSpace=wrap;html=1;" vertex="1" parent="1">
          <mxGeometry x="305" y="200" width="120" height="60" as="geometry" />
        </mxCell>
        <mxCell id="NiBIm0Q60gBQWmjDM7II-7" value="" style="edgeStyle=orthogonalEdgeStyle;rounded=0;orthogonalLoop=1;jettySize=auto;html=1;" edge="1" parent="1" source="NiBIm0Q60gBQWmjDM7II-5" target="NiBIm0Q60gBQWmjDM7II-6">
          <mxGeometry relative="1" as="geometry" />
        </mxCell>
        <mxCell id="NiBIm0Q60gBQWmjDM7II-8" value="" style="edgeStyle=orthogonalEdgeStyle;rounded=0;orthogonalLoop=1;jettySize=auto;html=1;" edge="1" parent="1" source="NiBIm0Q60gBQWmjDM7II-5" target="NiBIm0Q60gBQWmjDM7II-2">
          <mxGeometry relative="1" as="geometry" />
        </mxCell>
        <mxCell id="NiBIm0Q60gBQWmjDM7II-9" value="90-2" style="edgeLabel;html=1;align=center;verticalAlign=middle;resizable=0;points=[];" vertex="1" connectable="0" parent="NiBIm0Q60gBQWmjDM7II-8">
          <mxGeometry x="-0.1462" y="-2" relative="1" as="geometry">
            <mxPoint as="offset" />
          </mxGeometry>
        </mxCell>
        <mxCell id="NiBIm0Q60gBQWmjDM7II-5" value="Telemon 3.0" style="rounded=0;whiteSpace=wrap;html=1;" vertex="1" parent="1">
          <mxGeometry x="100" y="200" width="120" height="60" as="geometry" />
        </mxCell>
        <mxCell id="NiBIm0Q60gBQWmjDM7II-6" value="ОИК ЦУС" style="rounded=0;whiteSpace=wrap;html=1;" vertex="1" parent="1">
          <mxGeometry x="100" y="80" width="120" height="60" as="geometry" />
        </mxCell>
      </root>
    </mxGraphModel>
  </diagram>
</mxfile>
